# Blender v2.80 (sub 42) OBJ File: 'Objetos.blend'
# www.blender.org
mtllib Arpao.mtl
o Arpao_Cylinder.002
v -0.000000 0.026747 0.160281
v -0.000000 -0.000000 0.492699
v 0.018913 0.018913 0.160281
v 0.026747 0.000000 0.160281
v 0.018913 -0.018913 0.160281
v -0.000000 -0.026747 0.160281
v -0.018913 -0.018913 0.160281
v -0.026747 0.000000 0.160281
v -0.018913 0.018913 0.160281
v -0.000570 0.017971 0.320442
v 0.013110 0.012304 0.320442
v 0.017971 0.000570 0.320442
v 0.012304 -0.013110 0.320442
v 0.000570 -0.017971 0.320442
v -0.013110 -0.012304 0.320442
v -0.017971 -0.000570 0.320442
v -0.012304 0.013110 0.320442
v 0.019144 0.012678 0.292762
v 0.022501 0.004573 0.292762
v 0.012678 -0.019144 0.292762
v 0.004573 -0.022501 0.292762
v -0.019144 -0.012678 0.292762
v -0.022501 -0.004573 0.292762
v -0.012678 0.019144 0.292762
v -0.004573 0.022501 0.292762
v -0.046435 0.112101 0.137002
v -0.112102 -0.046434 0.137002
v 0.112102 0.046435 0.137002
v 0.046435 -0.112103 0.137003
v 0.000000 -0.018405 -1.149077
v 0.013015 -0.013015 -1.149077
v 0.018405 0.000000 -1.149077
v 0.013015 0.013015 -1.149077
v -0.000000 0.018405 -1.149077
v -0.013015 0.013015 -1.149077
v -0.018405 0.000000 -1.149077
v -0.013015 -0.013015 -1.149077
v 0.000000 -0.018405 0.211575
v 0.013015 -0.013015 0.211575
v 0.018405 -0.000000 0.211575
v 0.013015 0.013015 0.211575
v -0.000000 0.018405 0.211575
v -0.013015 0.013015 0.211575
v -0.018405 -0.000000 0.211575
v -0.013015 -0.013015 0.211575
vt 1.000000 0.750000
vt 0.875000 1.000000
vt 0.875000 0.750000
vt 0.750000 1.000000
vt 0.750000 0.750000
vt 0.625000 1.000000
vt 0.625000 0.750000
vt 0.500000 1.000000
vt 0.500000 0.750000
vt 0.375000 1.000000
vt 0.375000 0.750000
vt 0.250000 1.000000
vt 0.250000 0.750000
vt 0.125000 1.000000
vt 0.125000 0.750000
vt 0.000000 1.000000
vt 0.000000 0.750000
vt 0.750000 0.490000
vt 0.919706 0.419706
vt 0.990000 0.250000
vt 0.919706 0.080294
vt 0.750000 0.010000
vt 0.580294 0.080294
vt 0.510000 0.250000
vt 0.580294 0.419706
vt 0.375000 0.705559
vt 0.375000 0.705559
vt 0.250000 0.705559
vt 0.125000 0.705559
vt 0.500000 0.705559
vt 0.625000 0.705559
vt 0.500000 0.705559
vt 0.625000 0.750000
vt 0.750000 0.705559
vt 0.500000 0.750000
vt 1.000000 0.705559
vt 0.875000 0.705559
vt 1.000000 0.500000
vt 0.875000 0.500000
vt 0.750000 0.500000
vt 0.625000 0.500000
vt 0.500000 0.500000
vt 0.375000 0.500000
vt 0.250000 0.500000
vt 0.125000 0.500000
vt 0.000000 0.705559
vt 0.000000 0.500000
vt 0.250000 0.750000
vt 0.875000 0.750000
vt 0.250000 0.705559
vt 0.125000 0.705559
vt 1.000000 0.750000
vt 0.125000 0.750000
vt 0.875000 0.705559
vt 0.000000 0.705559
vt 0.750000 0.750000
vt 0.375000 0.750000
vt 0.750000 0.705559
vt 0.625000 0.705559
vt 1.000000 0.570445
vt 1.000000 1.000000
vt 0.875000 1.000000
vt 0.875000 0.570445
vt 0.750000 1.000000
vt 0.750000 0.570445
vt 0.625000 1.000000
vt 0.625000 0.570445
vt 0.500000 1.000000
vt 0.500000 0.570445
vt 0.375000 1.000000
vt 0.375000 0.570445
vt 0.250000 1.000000
vt 0.250000 0.570445
vt 0.419706 0.419706
vt 0.250000 0.490000
vt 0.080294 0.419706
vt 0.010000 0.250000
vt 0.080294 0.080294
vt 0.250000 0.010000
vt 0.419706 0.080294
vt 0.490000 0.250000
vt 0.125000 1.000000
vt 0.125000 0.570445
vt 0.000000 1.000000
vt 0.000000 0.570445
vn 0.0777 0.9762 0.2025
vn 0.0000 0.0000 1.0000
vn 0.6353 0.7452 0.2025
vn 0.9762 -0.0777 0.2025
vn 0.7452 -0.6353 0.2025
vn -0.0777 -0.9762 0.2025
vn -0.6353 -0.7452 0.2025
vn -0.9762 0.0777 0.2025
vn -0.7452 0.6353 0.2025
vn 0.0065 0.7861 -0.6181
vn 0.5512 0.5604 -0.6181
vn 0.7861 -0.0065 -0.6181
vn 0.5604 -0.5512 -0.6181
vn -0.0065 -0.7861 -0.6181
vn -0.5512 -0.5604 -0.6181
vn -0.7861 0.0065 -0.6181
vn -0.5604 0.5512 -0.6181
vn -0.0179 -0.9868 -0.1608
vn -0.4756 -0.1970 -0.8573
vn -0.7104 0.6851 -0.1608
vn -0.9868 0.0178 -0.1608
vn -0.6851 -0.7104 -0.1608
vn 0.9868 -0.0178 -0.1608
vn 0.1970 -0.4757 -0.8572
vn 0.7104 -0.6851 -0.1608
vn 0.6851 0.7104 -0.1608
vn 0.0178 0.9868 -0.1608
vn 0.4755 0.1964 -0.8574
vn -0.1967 0.4750 -0.8577
vn 0.0000 -1.0000 0.0000
vn 0.0000 -0.7764 -0.6302
vn 0.5490 -0.5490 -0.6302
vn 0.7071 -0.7071 0.0000
vn 0.7764 0.0000 -0.6302
vn 1.0000 0.0000 0.0000
vn 0.5490 0.5490 -0.6302
vn 0.7071 0.7071 0.0000
vn 0.0000 0.7764 -0.6302
vn 0.0000 1.0000 0.0000
vn -0.5490 0.5490 -0.6302
vn -0.7071 0.7071 0.0000
vn -0.7764 0.0000 -0.6302
vn -1.0000 0.0000 0.0000
vn -0.5490 -0.5490 -0.6302
vn -0.7071 -0.7071 0.0000
usemtl Ferro
s 1
f 10/1/1 2/2/2 11/3/3
f 11/3/3 2/4/2 12/5/4
f 12/5/4 2/6/2 13/7/5
f 13/7/5 2/8/2 14/9/6
f 14/9/6 2/10/2 15/11/7
f 15/11/7 2/12/2 16/13/8
f 16/13/8 2/14/2 17/15/9
f 17/15/9 2/16/2 10/17/1
f 1/18/10 3/19/11 4/20/12 5/21/13 6/22/14 7/23/15 8/24/16 9/25/17
f 22/26/18 15/11/7 27/27/19
f 23/28/20 16/13/8 17/15/9 24/29/21
f 21/30/22 20/31/23 29/32/24
f 21/30/22 14/9/6 15/11/7 22/26/18
f 13/7/5 14/9/6 29/33/24
f 19/34/25 12/5/4 13/7/5 20/31/23
f 14/9/6 21/30/22 29/35/24
f 25/36/26 10/1/1 11/3/3 18/37/27
f 1/38/10 25/36/26 18/37/27 3/39/11
f 3/39/11 18/37/27 19/34/25 4/40/12
f 4/40/12 19/34/25 20/31/23 5/41/13
f 5/41/13 20/31/23 21/30/22 6/42/14
f 6/42/14 21/30/22 22/26/18 7/43/15
f 7/43/15 22/26/18 23/28/20 8/44/16
f 8/44/16 23/28/20 24/29/21 9/45/17
f 9/45/17 24/29/21 25/46/26 1/47/10
f 16/13/8 23/28/20 27/48/19
f 11/3/3 12/5/4 28/49/28
f 23/28/20 22/26/18 27/50/19
f 24/29/21 17/15/9 26/51/29
f 10/1/1 25/36/26 26/52/29
f 17/15/9 10/17/1 26/53/29
f 18/37/27 11/3/3 28/54/28
f 25/46/26 24/29/21 26/55/29
f 12/5/4 19/34/25 28/56/28
f 15/11/7 16/13/8 27/57/19
f 19/34/25 18/37/27 28/58/28
f 20/31/23 13/7/5 29/59/24
f 38/60/30 30/61/31 31/62/32 39/63/33
f 39/63/33 31/62/32 32/64/34 40/65/35
f 40/65/35 32/64/34 33/66/36 41/67/37
f 41/67/37 33/66/36 34/68/38 42/69/39
f 42/69/39 34/68/38 35/70/40 43/71/41
f 43/71/41 35/70/40 36/72/42 44/73/43
f 31/74/32 30/75/31 37/76/44 36/77/42 35/78/40 34/79/38 33/80/36 32/81/34
f 44/73/43 36/72/42 37/82/44 45/83/45
f 45/83/45 37/82/44 30/84/31 38/85/30
